<?xml version="1.0" encoding="utf-8"?>
<!-- Generator: Adobe Illustrator 17.0.0, SVG Export Plug-In . SVG Version: 6.00 Build 0)  -->
<!DOCTYPE svg PUBLIC "-//W3C//DTD SVG 1.1//EN" "http://www.w3.org/Graphics/SVG/1.1/DTD/svg11.dtd">
<svg version="1.1" id="Capa_1" xmlns="http://www.w3.org/2000/svg" xmlns:xlink="http://www.w3.org/1999/xlink" x="0px" y="0px"
	 width="400px" height="226px" viewBox="0 0 400 226" enable-background="new 0 0 400 226" xml:space="preserve">
<g>
	<path fill="#FFFFFF" d="M0,164.764c0,12.164,9.038,19.967,19.931,19.967c9.579,0,14.601-5.967,14.601-5.967l-1.7-2.678
		c0,0-4.404,5.508-12.901,5.508c-9.039,0-16.531-6.656-16.531-16.831c0-10.328,7.493-16.984,16.531-16.984
		c3.708,0,10.352,1.76,10.352,5.509v2.218h3.244v-2.907c0-6.197-9.425-7.956-13.596-7.956C9.193,144.644,0,152.601,0,164.764
		 M39.423,183.813h3.245v-18.666c0-1.836,0.154-3.595,0.618-5.202c1.931-7.115,8.343-12.164,15.605-12.164
		c8.652,0,9.502,6.273,9.502,12.929v18.666c0,3.137,1.313,4.437,4.481,4.437h3.785v-2.907h-3.322c-1.081,0-1.699-0.536-1.699-1.683
		v-19.661c0-9.027-2.704-14.918-12.746-14.918c-9.656,0-14.91,6.809-16.223,10.404h-0.155c0,0,0.155-1.377,0.155-3.137V134.47
		c0-2.907-1.314-4.208-4.481-4.208h-3.786v2.907h3.322c1.082,0,1.7,0.535,1.7,1.683V183.813z M81.164,183.813h3.245v-16.524
		c0-2.525,0.309-5.355,1.158-8.033c1.7-5.661,5.485-10.71,11.511-10.71c0.849,0,1.776,0.153,1.776,0.153v-3.213
		c0,0-1.081-0.23-2.24-0.23c-6.103,0-10.275,4.437-12.206,10.328h-0.155c0,0,0.155-1.377,0.155-3.137v-2.678
		c0-2.907-1.314-4.208-4.481-4.208h-3.786v2.907h3.322c1.082,0,1.7,0.536,1.7,1.682V183.813z M103.824,179.376
		c0,3.137,1.313,4.437,4.481,4.437h3.786v-2.907h-3.322c-1.082,0-1.7-0.536-1.7-1.683V150c0-3.137-1.313-4.437-4.481-4.437h-3.785
		v2.907h3.322c1.081,0,1.699,0.536,1.699,1.682V179.376z M112.579,178.152c0,0,4.481,6.579,14.214,6.579
		c7.339,0,12.978-4.208,12.978-10.327c0-12.623-22.249-10.252-22.249-20.044c0-4.36,3.709-6.579,9.966-6.579
		c2.704,0,7.494,1.225,7.494,4.437v1.836h3.245v-2.907c0-5.049-7.571-6.503-10.893-6.503c-7.648,0-13.21,3.366-13.21,9.945
		c0,12.317,22.249,10.175,22.249,19.815c0,4.742-4.558,7.191-9.502,7.191c-7.957,0-11.974-5.814-11.974-5.814L112.579,178.152z
		 M141.959,172.95c0,7.727,6.566,11.781,13.288,11.781c9.347,0,12.437-7.65,12.437-7.65h0.154c0,0-0.154,0.995-0.154,2.295
		c0,2.754,1.39,4.437,4.867,4.437h7.03v-6.349h-3.167c-1.082,0-1.7-0.536-1.7-1.683v-16.448c0-8.568-3.399-15.147-16.068-15.147
		c-3.786,0-13.519,0.918-13.519,7.268v3.825h7.03v-2.219c0-2.524,4.558-2.984,6.412-2.984c6.103,0,8.652,2.448,8.652,9.257v0.382
		h-1.699C158.955,159.715,141.959,160.48,141.959,172.95z M149.53,172.567c0-7.114,10.197-7.42,15.836-7.42h1.931v1.301
		c0,5.738-4.094,12.317-10.429,12.317C151.924,178.764,149.53,175.704,149.53,172.567z M183.711,184.155h7.493v-2.254
		c0-1.989-0.155-3.366-0.155-3.366h0.155c0,0,3.322,6.197,11.974,6.197c10.197,0,17.768-7.957,17.768-20.273
		c0-12.011-6.721-20.273-17.227-20.273c-9.734,0-12.978,6.885-12.978,6.885h-0.154c0,0,0.077-0.918,0.077-2.065
		c0-2.449-1.314-3.902-4.79-3.902h-7.03v6.35h3.167c1.082,0,1.7,0.536,1.7,1.683V184.155z M190.973,164.611
		c0-9.869,5.485-13.924,11.279-13.924c6.489,0,11.047,5.432,11.047,13.847c0,8.798-5.099,13.847-11.279,13.847
		C194.758,178.382,190.973,171.497,190.973,164.611z M222.295,172.95c0,7.727,6.566,11.781,13.288,11.781
		c9.347,0,12.437-7.65,12.437-7.65h0.154c0,0-0.154,0.995-0.154,2.295c0,2.754,1.39,4.437,4.867,4.437h7.03v-6.349h-3.167
		c-1.082,0-1.7-0.536-1.7-1.683v-16.448c0-8.568-3.399-15.147-16.068-15.147c-3.786,0-13.519,0.918-13.519,7.268v3.825h7.03v-2.219
		c0-2.524,4.558-2.984,6.412-2.984c6.103,0,8.652,2.448,8.652,9.257v0.382h-1.699C239.291,159.715,222.295,160.48,222.295,172.95z
		 M229.867,172.567c0-7.114,10.197-7.42,15.836-7.42h1.931v1.301c0,5.738-4.094,12.317-10.429,12.317
		C232.261,178.764,229.867,175.704,229.867,172.567z M303.441,164.458c0,11.628,8.575,20.273,20.858,20.273
		c10.352,0,15.914-6.656,15.914-6.656l-3.245-5.279c0,0-4.79,5.355-12.128,5.355c-7.262,0-13.75-4.973-13.75-13.77
		c0-8.186,5.717-13.847,13.365-13.847c2.858,0,7.261,1.224,7.261,3.978v2.142h6.798v-3.978c0-6.579-9.347-8.492-14.059-8.492
		C311.861,144.185,303.441,153.059,303.441,164.458z M344.806,178.917c0,3.442,1.468,4.896,4.944,4.896h7.339v-6.349h-3.168
		c-1.081,0-1.699-0.536-1.699-1.683V150c0-3.443-1.468-4.897-4.944-4.897h-7.339v6.35h3.167c1.082,0,1.7,0.536,1.7,1.683V178.917z
		 M357.898,164.382c0,11.781,9.347,20.35,21.013,20.35c11.665,0,21.09-8.569,21.09-20.35c0-11.705-9.425-20.197-21.09-20.197
		C367.245,144.185,357.898,152.677,357.898,164.382z M290.349,158.141v20.777c0,3.442,1.468,4.896,4.944,4.896h7.339v-6.349h-3.168
		c-1.081,0-1.699-0.536-1.699-1.683c0-8.593,0-17.188,0-25.781c0.227-6.231-2.907-5.405-7.217-5.64l-0.167-0.026L290.349,158.141z
		 M289.196,144.189c-6.644-0.592-15.164,2.243-17.886,10.554h-0.155c0,0,0.155-1.148,0.155-2.678v-2.448
		c0-3.137-1.623-4.514-5.022-4.514h-7.107v6.35h3.167c1.082,0,1.7,0.536,1.7,1.683v30.678h7.493v-15.836
		c0-2.372,0.231-4.743,0.927-6.961c1.777-5.738,6.18-9.104,10.97-9.104c1.421,0,4.168-0.06,5.738,0.582L289.196,144.189z
		 M290.349,153.953v4.188l0.033-13.808l-0.014-0.002l-0.022,9.404C290.353,153.804,290.355,153.877,290.349,153.953z
		 M365.546,164.382c0-8.033,6.026-13.77,13.364-13.77c7.416,0,13.442,5.738,13.442,13.77c0,8.109-6.026,13.924-13.442,13.924
		C371.571,178.306,365.546,172.491,365.546,164.382z"/>
	<path fill-rule="evenodd" clip-rule="evenodd" fill="#4ACCD4" d="M348.283,135.281c2.021,0,3.659,1.622,3.659,3.624
		c0,2.001-1.638,3.624-3.659,3.624s-3.659-1.622-3.659-3.624C344.624,136.904,346.262,135.281,348.283,135.281"/>
	<path fill-rule="evenodd" clip-rule="evenodd" fill="#4ACCD4" d="M294.054,135.281c2.021,0,3.659,1.622,3.659,3.624
		c0,2.001-1.638,3.624-3.659,3.624s-3.659-1.622-3.659-3.624C290.395,136.904,292.033,135.281,294.054,135.281"/>
	<path fill-rule="evenodd" clip-rule="evenodd" fill="#4ACCD4" d="M104.927,135.281c2.021,0,3.659,1.622,3.659,3.624
		c0,2.001-1.638,3.624-3.659,3.624c-2.021,0-3.659-1.622-3.659-3.624C101.268,136.904,102.907,135.281,104.927,135.281"/>
	<path fill="#FFFFFF" d="M279.924,222.731h0.903c0.029,0.765,0.218,1.362,0.571,1.785c0.351,0.426,0.832,0.638,1.439,0.638
		c0.676,0,1.209-0.191,1.596-0.574c0.387-0.382,0.581-0.908,0.581-1.577c0-0.325-0.055-0.607-0.163-0.843
		c-0.108-0.234-0.285-0.452-0.528-0.648c-0.22-0.186-0.64-0.397-1.267-0.631c-0.275-0.103-0.483-0.184-0.624-0.244
		c-0.829-0.346-1.42-0.75-1.768-1.212c-0.351-0.464-0.526-1.059-0.526-1.785c0-0.803,0.265-1.465,0.796-1.986
		c0.53-0.521,1.204-0.781,2.027-0.781c0.841,0,1.503,0.239,1.988,0.719c0.483,0.478,0.724,1.138,0.724,1.979v0.069h-0.86
		c-0.038-0.619-0.21-1.097-0.521-1.432c-0.311-0.337-0.734-0.504-1.269-0.504c-0.569,0-1.039,0.186-1.41,0.559
		c-0.371,0.373-0.557,0.846-0.557,1.419c0,0.261,0.038,0.502,0.115,0.724c0.079,0.222,0.191,0.423,0.339,0.605
		c0.249,0.289,0.801,0.598,1.661,0.925c0.155,0.06,0.27,0.108,0.351,0.141c0.868,0.339,1.484,0.734,1.847,1.183
		c0.366,0.447,0.547,1.028,0.547,1.742c0,0.93-0.268,1.661-0.805,2.196c-0.538,0.533-1.271,0.801-2.206,0.801
		c-0.935,0-1.656-0.282-2.17-0.846C280.223,224.588,279.953,223.78,279.924,222.731 M269.744,225.77v-10.683h4.904v0.832h-3.943
		v3.857h3.542v0.817h-3.542v4.345h3.943v0.832H269.744z M259.564,225.77v-10.683h0.86v9.88h3.958v0.803H259.564z M249.414,221.598
		h2.887l-1.436-5.334L249.414,221.598z M247.51,225.77l2.88-10.683h1.052l2.851,10.683h-0.903l-0.903-3.355h-3.224l-0.918,3.355
		H247.51z M241.304,225.77v-10.683h0.903v10.683H241.304z M235.425,222.186c-0.084,1.25-0.38,2.196-0.891,2.837
		c-0.511,0.643-1.224,0.963-2.134,0.963c-1.083,0-1.878-0.449-2.388-1.348c-0.509-0.899-0.765-2.306-0.765-4.218
		c0-1.91,0.256-3.312,0.765-4.206c0.509-0.894,1.305-1.341,2.388-1.341c0.901,0,1.613,0.292,2.137,0.872
		c0.523,0.583,0.796,1.391,0.82,2.426l-0.918,0.007c-0.038-0.791-0.234-1.403-0.588-1.835c-0.356-0.435-0.839-0.652-1.451-0.652
		c-0.755,0-1.314,0.385-1.678,1.152c-0.361,0.767-0.543,1.96-0.543,3.58c0,1.62,0.182,2.813,0.543,3.58
		c0.363,0.767,0.923,1.152,1.678,1.152c0.617,0,1.109-0.258,1.479-0.774c0.368-0.514,0.583-1.248,0.643-2.194H235.425z
		 M217.322,220.42c0-1.91,0.253-3.312,0.762-4.206c0.509-0.894,1.305-1.341,2.39-1.341c1.087,0,1.886,0.447,2.395,1.338
		c0.509,0.891,0.762,2.294,0.762,4.209c0,1.912-0.256,3.319-0.767,4.218c-0.511,0.899-1.307,1.348-2.39,1.348
		c-1.08,0-1.874-0.449-2.385-1.348C217.578,223.739,217.322,222.331,217.322,220.42z M218.24,220.422
		c0,1.611,0.182,2.801,0.545,3.573c0.366,0.772,0.927,1.159,1.69,1.159c0.76,0,1.322-0.385,1.682-1.152
		c0.361-0.767,0.543-1.96,0.543-3.58c0-1.62-0.182-2.813-0.543-3.58c-0.361-0.767-0.923-1.152-1.682-1.152
		c-0.762,0-1.324,0.387-1.69,1.159C218.422,217.621,218.24,218.811,218.24,220.422z M205.842,222.731h0.903
		c0.029,0.765,0.217,1.362,0.571,1.785c0.351,0.426,0.832,0.638,1.439,0.638c0.676,0,1.209-0.191,1.596-0.574
		c0.387-0.382,0.581-0.908,0.581-1.577c0-0.325-0.055-0.607-0.162-0.843c-0.108-0.234-0.284-0.452-0.528-0.648
		c-0.22-0.186-0.64-0.397-1.267-0.631c-0.275-0.103-0.483-0.184-0.624-0.244c-0.829-0.346-1.42-0.75-1.768-1.212
		c-0.351-0.464-0.526-1.059-0.526-1.785c0-0.803,0.265-1.465,0.796-1.986c0.53-0.521,1.204-0.781,2.027-0.781
		c0.841,0,1.503,0.239,1.988,0.719c0.483,0.478,0.724,1.138,0.724,1.979v0.069h-0.86c-0.038-0.619-0.21-1.097-0.521-1.432
		c-0.311-0.337-0.734-0.504-1.269-0.504c-0.569,0-1.04,0.186-1.41,0.559c-0.371,0.373-0.557,0.846-0.557,1.419
		c0,0.261,0.038,0.502,0.115,0.724c0.079,0.222,0.191,0.423,0.339,0.605c0.249,0.289,0.801,0.598,1.661,0.925
		c0.155,0.06,0.27,0.108,0.351,0.141c0.868,0.339,1.484,0.734,1.847,1.183c0.366,0.447,0.547,1.028,0.547,1.742
		c0,0.93-0.268,1.661-0.805,2.196c-0.538,0.533-1.271,0.801-2.206,0.801c-0.935,0-1.656-0.282-2.17-0.846
		C206.14,224.588,205.87,223.78,205.842,222.731z M191.152,222.731h0.903c0.029,0.765,0.217,1.362,0.571,1.785
		c0.351,0.426,0.832,0.638,1.439,0.638c0.676,0,1.209-0.191,1.596-0.574s0.581-0.908,0.581-1.577c0-0.325-0.055-0.607-0.163-0.843
		c-0.107-0.234-0.284-0.452-0.528-0.648c-0.22-0.186-0.64-0.397-1.267-0.631c-0.275-0.103-0.483-0.184-0.624-0.244
		c-0.829-0.346-1.419-0.75-1.768-1.212c-0.351-0.464-0.526-1.059-0.526-1.785c0-0.803,0.265-1.465,0.796-1.986
		c0.53-0.521,1.204-0.781,2.027-0.781c0.841,0,1.503,0.239,1.988,0.719c0.483,0.478,0.724,1.138,0.724,1.979v0.069h-0.86
		c-0.038-0.619-0.21-1.097-0.521-1.432c-0.311-0.337-0.734-0.504-1.269-0.504c-0.569,0-1.039,0.186-1.41,0.559
		c-0.371,0.373-0.557,0.846-0.557,1.419c0,0.261,0.038,0.502,0.115,0.724c0.079,0.222,0.191,0.423,0.339,0.605
		c0.249,0.289,0.801,0.598,1.661,0.925c0.155,0.06,0.27,0.108,0.351,0.141c0.868,0.339,1.484,0.734,1.847,1.183
		c0.366,0.447,0.547,1.028,0.547,1.742c0,0.93-0.268,1.661-0.805,2.196c-0.538,0.533-1.271,0.801-2.206,0.801
		c-0.935,0-1.656-0.282-2.17-0.846C191.45,224.588,191.18,223.78,191.152,222.731z M179.37,220.42c0-1.91,0.253-3.312,0.762-4.206
		c0.509-0.894,1.305-1.341,2.39-1.341c1.087,0,1.886,0.447,2.395,1.338c0.509,0.891,0.762,2.294,0.762,4.209
		c0,1.912-0.256,3.319-0.767,4.218c-0.511,0.899-1.307,1.348-2.39,1.348c-1.08,0-1.874-0.449-2.385-1.348
		C179.626,223.739,179.37,222.331,179.37,220.42z M180.288,220.422c0,1.611,0.182,2.801,0.545,3.573
		c0.366,0.772,0.927,1.159,1.69,1.159c0.76,0,1.322-0.385,1.682-1.152c0.361-0.767,0.543-1.96,0.543-3.58
		c0-1.62-0.182-2.813-0.543-3.58c-0.361-0.767-0.923-1.152-1.682-1.152c-0.762,0-1.324,0.387-1.69,1.159
		C180.469,217.621,180.288,218.811,180.288,220.422z M172.605,225.77v-10.683h0.903v10.683H172.605z M160.603,225.77v-10.683h2.225
		c1.439,0,2.45,0.397,3.035,1.19c0.585,0.793,0.877,2.175,0.877,4.144c0,1.964-0.294,3.348-0.882,4.149
		c-0.588,0.801-1.596,1.2-3.03,1.2H160.603z M161.535,224.968h1.238c1.152,0,1.941-0.311,2.366-0.935
		c0.428-0.624,0.64-1.823,0.64-3.597c0-1.788-0.213-2.995-0.64-3.621c-0.425-0.626-1.214-0.939-2.366-0.939h-1.238V224.968z
		 M150.065,225.77v-10.683h4.904v0.832h-3.943v3.857h3.542v0.817h-3.542v4.345h3.943v0.832H150.065z M135.788,225.77v-10.683h1.491
		l2.624,9.438l2.639-9.438h1.477v10.683h-0.86v-9.921l-2.765,9.921h-0.958l-2.787-9.921v9.921H135.788z M120.448,225.77v-10.683
		h1.02l4.07,9.318v-9.318h0.846v10.683h-1.042l-4.049-9.137v9.137H120.448z M109.909,225.77v-10.683h4.904v0.832h-3.943v3.857h3.542
		v0.817h-3.542v4.345h3.943v0.832H109.909z M362.395,204.41h2.887l-1.436-5.334L362.395,204.41z M360.491,208.582l2.88-10.683h1.052
		l2.851,10.683h-0.903l-0.903-3.355h-3.224l-0.918,3.355H360.491z M349.292,208.582V197.9h2.225c1.439,0,2.45,0.397,3.035,1.19
		c0.585,0.793,0.877,2.175,0.877,4.144c0,1.964-0.294,3.348-0.882,4.149c-0.588,0.801-1.597,1.2-3.03,1.2H349.292z M350.224,207.779
		h1.238c1.152,0,1.941-0.311,2.366-0.935c0.428-0.624,0.64-1.823,0.64-3.597c0-1.788-0.213-2.995-0.64-3.621
		c-0.425-0.626-1.214-0.939-2.366-0.939h-1.238V207.779z M339.143,204.41h2.887l-1.436-5.334L339.143,204.41z M337.238,208.582
		l2.88-10.683h1.052l2.851,10.683h-0.903l-0.903-3.355h-3.224l-0.918,3.355H337.238z M327.22,208.582v-0.918l4.431-8.948h-4.187
		V197.9h5.134v0.918l-4.433,8.919h4.433v0.846H327.22z M320.885,208.582V197.9h0.903v10.683H320.885z M310.676,208.582V197.9h0.86
		v9.88h3.958v0.803H310.676z M300.527,204.41h2.887l-1.436-5.334L300.527,204.41z M298.622,208.582l2.88-10.683h1.052l2.851,10.683
		h-0.903l-0.903-3.355h-3.224l-0.918,3.355H298.622z M292.416,208.582V197.9h0.903v10.683H292.416z M286.538,204.998
		c-0.084,1.25-0.38,2.196-0.891,2.837c-0.511,0.643-1.224,0.963-2.134,0.963c-1.083,0-1.878-0.449-2.388-1.348
		c-0.509-0.899-0.765-2.306-0.765-4.218c0-1.91,0.256-3.312,0.765-4.206c0.509-0.894,1.305-1.341,2.388-1.341
		c0.901,0,1.613,0.292,2.137,0.872c0.523,0.583,0.796,1.391,0.82,2.426l-0.918,0.007c-0.038-0.791-0.234-1.403-0.588-1.835
		c-0.356-0.435-0.839-0.652-1.451-0.652c-0.755,0-1.314,0.385-1.678,1.152c-0.361,0.767-0.543,1.96-0.543,3.58
		c0,1.62,0.182,2.813,0.543,3.58c0.363,0.767,0.922,1.152,1.678,1.152c0.617,0,1.109-0.258,1.479-0.774
		c0.368-0.514,0.583-1.248,0.643-2.194H286.538z M270.036,208.582V197.9h4.904v0.832h-3.943v3.857h3.542v0.817h-3.542v4.345h3.943
		v0.832H270.036z M259.784,202.89h1.307c0.44,0,0.779-0.029,1.023-0.084c0.241-0.057,0.459-0.148,0.65-0.272
		c0.26-0.17,0.456-0.397,0.586-0.684c0.127-0.287,0.191-0.638,0.191-1.054c0-0.798-0.182-1.35-0.545-1.654
		c-0.366-0.304-1.09-0.454-2.177-0.454h-1.035V202.89z M258.923,208.582V197.9h2.036c0.784,0,1.353,0.045,1.706,0.134
		c0.356,0.088,0.655,0.239,0.903,0.454c0.28,0.237,0.492,0.545,0.641,0.923c0.146,0.378,0.22,0.813,0.22,1.302
		c0,1.087-0.289,1.857-0.865,2.314c-0.576,0.454-1.587,0.681-3.033,0.681h-0.748v4.875H258.923z M247.214,205.542h0.903
		c0.029,0.765,0.217,1.362,0.571,1.785c0.351,0.426,0.832,0.638,1.439,0.638c0.676,0,1.209-0.191,1.596-0.574
		c0.387-0.382,0.581-0.908,0.581-1.577c0-0.325-0.055-0.607-0.162-0.843c-0.108-0.234-0.285-0.452-0.528-0.648
		c-0.22-0.186-0.64-0.397-1.267-0.631c-0.275-0.103-0.483-0.184-0.624-0.244c-0.829-0.346-1.42-0.75-1.768-1.212
		c-0.351-0.464-0.526-1.059-0.526-1.785c0-0.803,0.265-1.465,0.796-1.986c0.53-0.521,1.204-0.781,2.027-0.781
		c0.841,0,1.503,0.239,1.988,0.719c0.483,0.478,0.724,1.138,0.724,1.979v0.069h-0.86c-0.038-0.619-0.21-1.097-0.521-1.432
		c-0.311-0.337-0.734-0.504-1.269-0.504c-0.569,0-1.039,0.186-1.41,0.559c-0.371,0.373-0.557,0.846-0.557,1.42
		c0,0.261,0.038,0.502,0.115,0.724c0.079,0.222,0.191,0.423,0.339,0.605c0.249,0.289,0.801,0.598,1.661,0.925
		c0.155,0.06,0.27,0.108,0.351,0.141c0.868,0.339,1.484,0.734,1.847,1.183c0.366,0.447,0.547,1.028,0.547,1.742
		c0,0.93-0.268,1.661-0.805,2.196c-0.538,0.533-1.271,0.801-2.206,0.801c-0.935,0-1.656-0.282-2.17-0.846
		C247.512,207.399,247.242,206.592,247.214,205.542z M237.033,208.582V197.9h4.904v0.832h-3.943v3.857h3.542v0.817h-3.542v4.345
		h3.943v0.832H237.033z M224.494,203.291h3.198v5.291h-0.705l-0.098-1.092c-0.279,0.423-0.612,0.748-0.994,0.973
		c-0.382,0.222-0.803,0.335-1.259,0.335c-1.061,0-1.843-0.454-2.349-1.362c-0.507-0.906-0.76-2.306-0.76-4.201
		c0-1.926,0.258-3.336,0.774-4.228c0.516-0.891,1.326-1.336,2.433-1.336c0.851,0,1.525,0.268,2.022,0.803
		c0.497,0.538,0.786,1.307,0.865,2.309h-0.903c-0.079-0.726-0.294-1.288-0.641-1.685c-0.349-0.397-0.801-0.595-1.355-0.595
		c-0.777,0-1.348,0.382-1.714,1.145c-0.366,0.762-0.55,1.957-0.55,3.587c0,1.62,0.182,2.813,0.543,3.58
		c0.361,0.767,0.92,1.152,1.675,1.152c0.729,0,1.276-0.33,1.647-0.992c0.368-0.66,0.552-1.64,0.552-2.937h-2.38V203.291z
		 M209.754,208.582V197.9h1.02l4.07,9.318V197.9h0.846v10.683h-1.042l-4.048-9.137v9.137H209.754z M202.773,208.582V197.9h0.903
		v10.683H202.773z M194.17,208.582v-9.822h-2.438v-0.86h5.793v0.86h-2.423v9.822H194.17z M182.025,208.582V197.9h4.904v0.832h-3.943
		v3.857h3.542v0.817h-3.542v4.345h3.943v0.832H182.025z M170.942,208.582V197.9h0.889v5.482l4.003-5.482h1.016l-3.186,4.347
		l3.315,6.336h-0.949l-2.918-5.592l-1.281,1.735v3.857H170.942z M160.479,202.818h0.918c0.992,0,1.697-0.167,2.113-0.499
		c0.418-0.335,0.626-0.884,0.626-1.649c0-0.691-0.198-1.195-0.595-1.508c-0.394-0.315-1.028-0.473-1.9-0.473h-1.161V202.818z
		 M159.576,208.582V197.9h2.093c1.157,0,2.003,0.215,2.545,0.648c0.54,0.43,0.81,1.104,0.81,2.019c0,0.681-0.131,1.236-0.392,1.661
		c-0.261,0.428-0.66,0.743-1.2,0.949c0.476,0.141,0.82,0.378,1.033,0.715c0.21,0.337,0.342,0.882,0.387,1.639
		c0.014,0.222,0.029,0.535,0.043,0.937c0.041,1.121,0.208,1.826,0.502,2.115h-1.037c-0.17-0.205-0.277-0.858-0.318-1.96
		c-0.014-0.304-0.026-0.538-0.036-0.707c-0.045-0.956-0.198-1.58-0.454-1.871c-0.258-0.292-0.722-0.437-1.393-0.437h-1.68v4.976
		H159.576z M149.455,204.41h2.887l-1.436-5.334L149.455,204.41z M147.551,208.582l2.88-10.683h1.052l2.851,10.683h-0.903
		l-0.903-3.355h-3.224l-0.918,3.355H147.551z M134.048,208.582V197.9h1.491l2.624,9.438l2.639-9.438h1.477v10.683h-0.86v-9.92
		l-2.765,9.92h-0.958l-2.787-9.92v9.92H134.048z M120.156,208.582V197.9h4.904v0.832h-3.943v3.857h3.542v0.817h-3.542v4.345h3.943
		v0.832H120.156z M108.184,208.582V197.9h2.225c1.439,0,2.45,0.397,3.035,1.19c0.586,0.793,0.877,2.175,0.877,4.144
		c0,1.964-0.294,3.348-0.882,4.149c-0.588,0.801-1.596,1.2-3.03,1.2H108.184z M109.116,207.779h1.238
		c1.152,0,1.941-0.311,2.366-0.935c0.428-0.624,0.64-1.823,0.64-3.597c0-1.788-0.213-2.995-0.64-3.621
		c-0.425-0.626-1.214-0.939-2.366-0.939h-1.238V207.779z M94.681,204.41h2.887l-1.436-5.334L94.681,204.41z M92.777,208.582
		l2.88-10.683h1.052l2.851,10.683h-0.903l-0.903-3.355h-3.224l-0.918,3.355H92.777z M86.571,208.582V197.9h0.903v10.683H86.571z
		 M80.692,204.998c-0.084,1.25-0.38,2.196-0.891,2.837c-0.511,0.643-1.224,0.963-2.134,0.963c-1.083,0-1.878-0.449-2.388-1.348
		c-0.509-0.899-0.765-2.306-0.765-4.218c0-1.91,0.256-3.312,0.765-4.206c0.509-0.894,1.305-1.341,2.388-1.341
		c0.901,0,1.613,0.292,2.137,0.872c0.524,0.583,0.796,1.391,0.82,2.426l-0.918,0.007c-0.038-0.791-0.234-1.403-0.588-1.835
		c-0.356-0.435-0.839-0.652-1.451-0.652c-0.755,0-1.314,0.385-1.678,1.152c-0.361,0.767-0.543,1.96-0.543,3.58
		c0,1.62,0.182,2.813,0.543,3.58c0.363,0.767,0.923,1.152,1.678,1.152c0.617,0,1.109-0.258,1.479-0.774
		c0.368-0.514,0.583-1.248,0.643-2.194H80.692z M62.742,208.582V197.9h1.02l4.07,9.318V197.9h0.846v10.683h-1.042l-4.048-9.137
		v9.137H62.742z M52.203,208.582V197.9h4.904v0.832h-3.943v3.857h3.542v0.817h-3.542v4.345h3.943v0.832H52.203z M43.017,203.291
		h3.198v5.291H45.51l-0.098-1.092c-0.28,0.423-0.612,0.748-0.994,0.973c-0.382,0.222-0.803,0.335-1.259,0.335
		c-1.061,0-1.843-0.454-2.349-1.362c-0.507-0.906-0.76-2.306-0.76-4.201c0-1.926,0.258-3.336,0.774-4.228
		c0.516-0.891,1.326-1.336,2.433-1.336c0.851,0,1.525,0.268,2.022,0.803c0.497,0.538,0.786,1.307,0.865,2.309H45.24
		c-0.079-0.726-0.294-1.288-0.641-1.685c-0.349-0.397-0.801-0.595-1.355-0.595c-0.777,0-1.348,0.382-1.713,1.145
		c-0.366,0.762-0.55,1.957-0.55,3.587c0,1.62,0.182,2.813,0.542,3.58c0.361,0.767,0.92,1.152,1.675,1.152
		c0.729,0,1.276-0.33,1.647-0.992c0.368-0.66,0.552-1.64,0.552-2.937h-2.38V203.291z M30.115,204.41h2.887l-1.436-5.334
		L30.115,204.41z M28.21,208.582l2.88-10.683h1.052l2.851,10.683h-0.903l-0.903-3.355h-3.224l-0.918,3.355H28.21z"/>
	<g>
		<path fill="#F48EC8" d="M174.259,0c9.252,0,18.007,2.146,25.805,5.971L200,5.938c-19.781,9.669-33.423,30.135-33.423,53.82
			c0,23.684,13.643,44.147,33.423,53.815c-7.674,3.753-16.271,5.88-25.357,5.938l0.004,0.004L100,120l24.106-28.532
			c-5.708-9.191-9.012-20.06-9.012-31.71C115.093,26.754,141.582,0,174.259,0z"/>
		<path fill="#B9D409" d="M225.742,0c-9.252,0-18.007,2.146-25.805,5.971L200,5.938c19.781,9.669,33.423,30.135,33.423,53.82
			c0,23.684-13.643,44.147-33.423,53.815c7.675,3.751,16.273,5.879,25.357,5.938l-0.004,0.004L300,120l-24.106-28.532
			c5.708-9.191,9.012-20.06,9.012-31.71C284.907,26.754,258.418,0,225.742,0z"/>
		<path fill="#FFFFFF" d="M200,5.938c19.781,9.669,33.423,30.135,33.423,53.82c0,23.684-13.643,44.147-33.423,53.816
			c-19.78-9.669-33.423-30.131-33.423-53.816S180.22,15.607,200,5.938"/>
		<path fill="#49CCD5" d="M182.392,55.617c2.263,0,4.098,1.853,4.098,4.139s-1.835,4.139-4.098,4.139s-4.098-1.853-4.098-4.139
			C178.294,57.47,180.129,55.617,182.392,55.617"/>
		<path fill="#49CCD5" d="M200,55.617c2.263,0,4.098,1.853,4.098,4.139s-1.835,4.139-4.098,4.139s-4.098-1.853-4.098-4.139
			C195.902,57.47,197.737,55.617,200,55.617"/>
		<path fill="#49CCD5" d="M217.608,55.617c2.263,0,4.098,1.853,4.098,4.139s-1.835,4.139-4.098,4.139s-4.098-1.853-4.098-4.139
			C213.51,57.47,215.345,55.617,217.608,55.617"/>
	</g>
</g>
</svg>
