<?xml version="1.0" encoding="UTF-8" standalone="no"?>
<!-- Generator: Adobe Illustrator 17.0.0, SVG Export Plug-In . SVG Version: 6.00 Build 0)  -->

<svg
   xmlns:dc="http://purl.org/dc/elements/1.1/"
   xmlns:cc="http://creativecommons.org/ns#"
   xmlns:rdf="http://www.w3.org/1999/02/22-rdf-syntax-ns#"
   xmlns:svg="http://www.w3.org/2000/svg"
   xmlns="http://www.w3.org/2000/svg"
   xmlns:sodipodi="http://sodipodi.sourceforge.net/DTD/sodipodi-0.dtd"
   xmlns:inkscape="http://www.inkscape.org/namespaces/inkscape"
   version="1.1"
   id="Capa_1"
   x="0px"
   y="0px"
   width="400px"
   height="226px"
   viewBox="0 0 400 226"
   enable-background="new 0 0 400 226"
   xml:space="preserve"
   sodipodi:docname="chris_aparicio.svg"
   inkscape:version="0.92.2 (unknown)"><metadata
     id="metadata33"><rdf:RDF><cc:Work
         rdf:about=""><dc:format>image/svg+xml</dc:format><dc:type
           rdf:resource="http://purl.org/dc/dcmitype/StillImage" /></cc:Work></rdf:RDF></metadata><defs
     id="defs31" /><sodipodi:namedview
     pagecolor="#ffffff"
     bordercolor="#666666"
     borderopacity="1"
     objecttolerance="10"
     gridtolerance="10"
     guidetolerance="10"
     inkscape:pageopacity="0"
     inkscape:pageshadow="2"
     inkscape:window-width="1855"
     inkscape:window-height="1056"
     id="namedview29"
     showgrid="false"
     inkscape:zoom="2.0718229"
     inkscape:cx="225.09738"
     inkscape:cy="97.800674"
     inkscape:window-x="65"
     inkscape:window-y="24"
     inkscape:window-maximized="1"
     inkscape:current-layer="g26" /><g
     id="g26"><path
       d="m 0,164.764 c 0,12.164 9.038,19.967 19.931,19.967 9.579,0 14.601,-5.967 14.601,-5.967 l -1.7,-2.678 c 0,0 -4.404,5.508 -12.901,5.508 -9.039,0 -16.531,-6.656 -16.531,-16.831 0,-10.328 7.493,-16.984 16.531,-16.984 3.708,0 10.352,1.76 10.352,5.509 v 2.218 h 3.244 v -2.907 c 0,-6.197 -9.425,-7.956 -13.596,-7.956 C 9.193,144.644 0,152.601 0,164.764 m 39.423,19.049 h 3.245 v -18.666 c 0,-1.836 0.154,-3.595 0.618,-5.202 1.931,-7.115 8.343,-12.164 15.605,-12.164 8.652,0 9.502,6.273 9.502,12.929 v 18.666 c 0,3.137 1.313,4.437 4.481,4.437 h 3.785 v -2.907 h -3.322 c -1.081,0 -1.699,-0.536 -1.699,-1.683 v -19.661 c 0,-9.027 -2.704,-14.918 -12.746,-14.918 -9.656,0 -14.91,6.809 -16.223,10.404 h -0.155 c 0,0 0.155,-1.377 0.155,-3.137 V 134.47 c 0,-2.907 -1.314,-4.208 -4.481,-4.208 h -3.786 v 2.907 h 3.322 c 1.082,0 1.7,0.535 1.7,1.683 v 48.961 z m 41.741,0 h 3.245 v -16.524 c 0,-2.525 0.309,-5.355 1.158,-8.033 1.7,-5.661 5.485,-10.71 11.511,-10.71 0.849,0 1.776,0.153 1.776,0.153 v -3.213 c 0,0 -1.081,-0.23 -2.24,-0.23 -6.103,0 -10.275,4.437 -12.206,10.328 h -0.155 c 0,0 0.155,-1.377 0.155,-3.137 v -2.678 c 0,-2.907 -1.314,-4.208 -4.481,-4.208 h -3.786 v 2.907 h 3.322 c 1.082,0 1.7,0.536 1.7,1.682 v 33.663 z m 22.66,-4.437 c 0,3.137 1.313,4.437 4.481,4.437 h 3.786 v -2.907 h -3.322 c -1.082,0 -1.7,-0.536 -1.7,-1.683 V 150 c 0,-3.137 -1.313,-4.437 -4.481,-4.437 h -3.785 v 2.907 h 3.322 c 1.081,0 1.699,0.536 1.699,1.682 z m 8.755,-1.224 c 0,0 4.481,6.579 14.214,6.579 7.339,0 12.978,-4.208 12.978,-10.327 0,-12.623 -22.249,-10.252 -22.249,-20.044 0,-4.36 3.709,-6.579 9.966,-6.579 2.704,0 7.494,1.225 7.494,4.437 v 1.836 h 3.245 v -2.907 c 0,-5.049 -7.571,-6.503 -10.893,-6.503 -7.648,0 -13.21,3.366 -13.21,9.945 0,12.317 22.249,10.175 22.249,19.815 0,4.742 -4.558,7.191 -9.502,7.191 -7.957,0 -11.974,-5.814 -11.974,-5.814 z m 29.38,-5.202 c 0,7.727 6.566,11.781 13.288,11.781 9.347,0 12.437,-7.65 12.437,-7.65 h 0.154 c 0,0 -0.154,0.995 -0.154,2.295 0,2.754 1.39,4.437 4.867,4.437 h 7.03 v -6.349 h -3.167 c -1.082,0 -1.7,-0.536 -1.7,-1.683 v -16.448 c 0,-8.568 -3.399,-15.147 -16.068,-15.147 -3.786,0 -13.519,0.918 -13.519,7.268 v 3.825 h 7.03 v -2.219 c 0,-2.524 4.558,-2.984 6.412,-2.984 6.103,0 8.652,2.448 8.652,9.257 v 0.382 h -1.699 c -6.567,0 -23.563,0.765 -23.563,13.235 z m 7.571,-0.383 c 0,-7.114 10.197,-7.42 15.836,-7.42 h 1.931 v 1.301 c 0,5.738 -4.094,12.317 -10.429,12.317 -4.944,-10e-4 -7.338,-3.061 -7.338,-6.198 z m 34.181,11.588 h 7.493 v -2.254 c 0,-1.989 -0.155,-3.366 -0.155,-3.366 h 0.155 c 0,0 3.322,6.197 11.974,6.197 10.197,0 17.768,-7.957 17.768,-20.273 0,-12.011 -6.721,-20.273 -17.227,-20.273 -9.734,0 -12.978,6.885 -12.978,6.885 h -0.154 c 0,0 0.077,-0.918 0.077,-2.065 0,-2.449 -1.314,-3.902 -4.79,-3.902 h -7.03 v 6.35 h 3.167 c 1.082,0 1.7,0.536 1.7,1.683 z m 7.262,-19.544 c 0,-9.869 5.485,-13.924 11.279,-13.924 6.489,0 11.047,5.432 11.047,13.847 0,8.798 -5.099,13.847 -11.279,13.847 -7.262,0.001 -11.047,-6.884 -11.047,-13.77 z m 31.322,8.339 c 0,7.727 6.566,11.781 13.288,11.781 9.347,0 12.437,-7.65 12.437,-7.65 h 0.154 c 0,0 -0.154,0.995 -0.154,2.295 0,2.754 1.39,4.437 4.867,4.437 h 7.03 v -6.349 h -3.167 c -1.082,0 -1.7,-0.536 -1.7,-1.683 v -16.448 c 0,-8.568 -3.399,-15.147 -16.068,-15.147 -3.786,0 -13.519,0.918 -13.519,7.268 v 3.825 h 7.03 v -2.219 c 0,-2.524 4.558,-2.984 6.412,-2.984 6.103,0 8.652,2.448 8.652,9.257 v 0.382 h -1.699 c -6.567,0 -23.563,0.765 -23.563,13.235 z m 7.572,-0.383 c 0,-7.114 10.197,-7.42 15.836,-7.42 h 1.931 v 1.301 c 0,5.738 -4.094,12.317 -10.429,12.317 -4.944,-10e-4 -7.338,-3.061 -7.338,-6.198 z m 73.574,-8.109 c 0,11.628 8.575,20.273 20.858,20.273 10.352,0 15.914,-6.656 15.914,-6.656 l -3.245,-5.279 c 0,0 -4.79,5.355 -12.128,5.355 -7.262,0 -13.75,-4.973 -13.75,-13.77 0,-8.186 5.717,-13.847 13.365,-13.847 2.858,0 7.261,1.224 7.261,3.978 v 2.142 h 6.798 v -3.978 c 0,-6.579 -9.347,-8.492 -14.059,-8.492 -12.594,0.001 -21.014,8.875 -21.014,20.274 z m 41.365,14.459 c 0,3.442 1.468,4.896 4.944,4.896 h 7.339 v -6.349 h -3.168 c -1.081,0 -1.699,-0.536 -1.699,-1.683 V 150 c 0,-3.443 -1.468,-4.897 -4.944,-4.897 h -7.339 v 6.35 h 3.167 c 1.082,0 1.7,0.536 1.7,1.683 z m 13.092,-14.535 c 0,11.781 9.347,20.35 21.013,20.35 11.665,0 21.09,-8.569 21.09,-20.35 0,-11.705 -9.425,-20.197 -21.09,-20.197 -11.666,0 -21.013,8.492 -21.013,20.197 z m -67.549,-6.241 v 20.777 c 0,3.442 1.468,4.896 4.944,4.896 h 7.339 v -6.349 h -3.168 c -1.081,0 -1.699,-0.536 -1.699,-1.683 0,-8.593 0,-17.188 0,-25.781 0.227,-6.231 -2.907,-5.405 -7.217,-5.64 l -0.167,-0.026 z m -1.153,-13.952 c -6.644,-0.592 -15.164,2.243 -17.886,10.554 h -0.155 c 0,0 0.155,-1.148 0.155,-2.678 v -2.448 c 0,-3.137 -1.623,-4.514 -5.022,-4.514 h -7.107 v 6.35 h 3.167 c 1.082,0 1.7,0.536 1.7,1.683 v 30.678 h 7.493 v -15.836 c 0,-2.372 0.231,-4.743 0.927,-6.961 1.777,-5.738 6.18,-9.104 10.97,-9.104 1.421,0 4.168,-0.06 5.738,0.582 z m 1.153,9.764 v 4.188 l 0.033,-13.808 -0.014,-0.002 -0.022,9.404 c 0.007,0.069 0.009,0.142 0.003,0.218 z m 75.197,10.429 c 0,-8.033 6.026,-13.77 13.364,-13.77 7.416,0 13.442,5.738 13.442,13.77 0,8.109 -6.026,13.924 -13.442,13.924 -7.339,0 -13.364,-5.815 -13.364,-13.924 z"
       id="path2"
       inkscape:connector-curvature="0"
       style="fill:#b9d409;fill-opacity:1" /><path
       d="m 348.283,135.281 c 2.021,0 3.659,1.622 3.659,3.624 0,2.001 -1.638,3.624 -3.659,3.624 -2.021,0 -3.659,-1.622 -3.659,-3.624 0,-2.001 1.638,-3.624 3.659,-3.624"
       id="path4"
       inkscape:connector-curvature="0"
       style="clip-rule:evenodd;fill:#4accd4;fill-rule:evenodd" /><path
       d="m 294.054,135.281 c 2.021,0 3.659,1.622 3.659,3.624 0,2.001 -1.638,3.624 -3.659,3.624 -2.021,0 -3.659,-1.622 -3.659,-3.624 0,-2.001 1.638,-3.624 3.659,-3.624"
       id="path6"
       inkscape:connector-curvature="0"
       style="clip-rule:evenodd;fill:#4accd4;fill-rule:evenodd" /><path
       d="m 104.927,135.281 c 2.021,0 3.659,1.622 3.659,3.624 0,2.001 -1.638,3.624 -3.659,3.624 -2.021,0 -3.659,-1.622 -3.659,-3.624 0,-2.001 1.639,-3.624 3.659,-3.624"
       id="path8"
       inkscape:connector-curvature="0"
       style="clip-rule:evenodd;fill:#4accd4;fill-rule:evenodd" /><path
       d="m 279.924,222.731 h 0.903 c 0.029,0.765 0.218,1.362 0.571,1.785 0.351,0.426 0.832,0.638 1.439,0.638 0.676,0 1.209,-0.191 1.596,-0.574 0.387,-0.382 0.581,-0.908 0.581,-1.577 0,-0.325 -0.055,-0.607 -0.163,-0.843 -0.108,-0.234 -0.285,-0.452 -0.528,-0.648 -0.22,-0.186 -0.64,-0.397 -1.267,-0.631 -0.275,-0.103 -0.483,-0.184 -0.624,-0.244 -0.829,-0.346 -1.42,-0.75 -1.768,-1.212 -0.351,-0.464 -0.526,-1.059 -0.526,-1.785 0,-0.803 0.265,-1.465 0.796,-1.986 0.53,-0.521 1.204,-0.781 2.027,-0.781 0.841,0 1.503,0.239 1.988,0.719 0.483,0.478 0.724,1.138 0.724,1.979 v 0.069 h -0.86 c -0.038,-0.619 -0.21,-1.097 -0.521,-1.432 -0.311,-0.337 -0.734,-0.504 -1.269,-0.504 -0.569,0 -1.039,0.186 -1.41,0.559 -0.371,0.373 -0.557,0.846 -0.557,1.419 0,0.261 0.038,0.502 0.115,0.724 0.079,0.222 0.191,0.423 0.339,0.605 0.249,0.289 0.801,0.598 1.661,0.925 0.155,0.06 0.27,0.108 0.351,0.141 0.868,0.339 1.484,0.734 1.847,1.183 0.366,0.447 0.547,1.028 0.547,1.742 0,0.93 -0.268,1.661 -0.805,2.196 -0.538,0.533 -1.271,0.801 -2.206,0.801 -0.935,0 -1.656,-0.282 -2.17,-0.846 -0.512,-0.565 -0.782,-1.373 -0.811,-2.422 m -10.18,3.039 v -10.683 h 4.904 v 0.832 h -3.943 v 3.857 h 3.542 v 0.817 h -3.542 v 4.345 h 3.943 v 0.832 z m -10.18,0 v -10.683 h 0.86 v 9.88 h 3.958 v 0.803 z m -10.15,-4.172 h 2.887 l -1.436,-5.334 z m -1.904,4.172 2.88,-10.683 h 1.052 l 2.851,10.683 h -0.903 l -0.903,-3.355 h -3.224 l -0.918,3.355 z m -6.206,0 v -10.683 h 0.903 v 10.683 z m -5.879,-3.584 c -0.084,1.25 -0.38,2.196 -0.891,2.837 -0.511,0.643 -1.224,0.963 -2.134,0.963 -1.083,0 -1.878,-0.449 -2.388,-1.348 -0.509,-0.899 -0.765,-2.306 -0.765,-4.218 0,-1.91 0.256,-3.312 0.765,-4.206 0.509,-0.894 1.305,-1.341 2.388,-1.341 0.901,0 1.613,0.292 2.137,0.872 0.523,0.583 0.796,1.391 0.82,2.426 l -0.918,0.007 c -0.038,-0.791 -0.234,-1.403 -0.588,-1.835 -0.356,-0.435 -0.839,-0.652 -1.451,-0.652 -0.755,0 -1.314,0.385 -1.678,1.152 -0.361,0.767 -0.543,1.96 -0.543,3.58 0,1.62 0.182,2.813 0.543,3.58 0.363,0.767 0.923,1.152 1.678,1.152 0.617,0 1.109,-0.258 1.479,-0.774 0.368,-0.514 0.583,-1.248 0.643,-2.194 h 0.903 z m -18.103,-1.766 c 0,-1.91 0.253,-3.312 0.762,-4.206 0.509,-0.894 1.305,-1.341 2.39,-1.341 1.087,0 1.886,0.447 2.395,1.338 0.509,0.891 0.762,2.294 0.762,4.209 0,1.912 -0.256,3.319 -0.767,4.218 -0.511,0.899 -1.307,1.348 -2.39,1.348 -1.08,0 -1.874,-0.449 -2.385,-1.348 -0.511,-0.899 -0.767,-2.307 -0.767,-4.218 z m 0.918,0.002 c 0,1.611 0.182,2.801 0.545,3.573 0.366,0.772 0.927,1.159 1.69,1.159 0.76,0 1.322,-0.385 1.682,-1.152 0.361,-0.767 0.543,-1.96 0.543,-3.58 0,-1.62 -0.182,-2.813 -0.543,-3.58 -0.361,-0.767 -0.923,-1.152 -1.682,-1.152 -0.762,0 -1.324,0.387 -1.69,1.159 -0.363,0.772 -0.545,1.962 -0.545,3.573 z m -12.398,2.309 h 0.903 c 0.029,0.765 0.217,1.362 0.571,1.785 0.351,0.426 0.832,0.638 1.439,0.638 0.676,0 1.209,-0.191 1.596,-0.574 0.387,-0.382 0.581,-0.908 0.581,-1.577 0,-0.325 -0.055,-0.607 -0.162,-0.843 -0.108,-0.234 -0.284,-0.452 -0.528,-0.648 -0.22,-0.186 -0.64,-0.397 -1.267,-0.631 -0.275,-0.103 -0.483,-0.184 -0.624,-0.244 -0.829,-0.346 -1.42,-0.75 -1.768,-1.212 -0.351,-0.464 -0.526,-1.059 -0.526,-1.785 0,-0.803 0.265,-1.465 0.796,-1.986 0.53,-0.521 1.204,-0.781 2.027,-0.781 0.841,0 1.503,0.239 1.988,0.719 0.483,0.478 0.724,1.138 0.724,1.979 v 0.069 h -0.86 c -0.038,-0.619 -0.21,-1.097 -0.521,-1.432 -0.311,-0.337 -0.734,-0.504 -1.269,-0.504 -0.569,0 -1.04,0.186 -1.41,0.559 -0.371,0.373 -0.557,0.846 -0.557,1.419 0,0.261 0.038,0.502 0.115,0.724 0.079,0.222 0.191,0.423 0.339,0.605 0.249,0.289 0.801,0.598 1.661,0.925 0.155,0.06 0.27,0.108 0.351,0.141 0.868,0.339 1.484,0.734 1.847,1.183 0.366,0.447 0.547,1.028 0.547,1.742 0,0.93 -0.268,1.661 -0.805,2.196 -0.538,0.533 -1.271,0.801 -2.206,0.801 -0.935,0 -1.656,-0.282 -2.17,-0.846 -0.514,-0.565 -0.784,-1.373 -0.812,-2.422 z m -14.69,0 h 0.903 c 0.029,0.765 0.217,1.362 0.571,1.785 0.351,0.426 0.832,0.638 1.439,0.638 0.676,0 1.209,-0.191 1.596,-0.574 0.387,-0.383 0.581,-0.908 0.581,-1.577 0,-0.325 -0.055,-0.607 -0.163,-0.843 -0.107,-0.234 -0.284,-0.452 -0.528,-0.648 -0.22,-0.186 -0.64,-0.397 -1.267,-0.631 -0.275,-0.103 -0.483,-0.184 -0.624,-0.244 -0.829,-0.346 -1.419,-0.75 -1.768,-1.212 -0.351,-0.464 -0.526,-1.059 -0.526,-1.785 0,-0.803 0.265,-1.465 0.796,-1.986 0.53,-0.521 1.204,-0.781 2.027,-0.781 0.841,0 1.503,0.239 1.988,0.719 0.483,0.478 0.724,1.138 0.724,1.979 v 0.069 h -0.86 c -0.038,-0.619 -0.21,-1.097 -0.521,-1.432 -0.311,-0.337 -0.734,-0.504 -1.269,-0.504 -0.569,0 -1.039,0.186 -1.41,0.559 -0.371,0.373 -0.557,0.846 -0.557,1.419 0,0.261 0.038,0.502 0.115,0.724 0.079,0.222 0.191,0.423 0.339,0.605 0.249,0.289 0.801,0.598 1.661,0.925 0.155,0.06 0.27,0.108 0.351,0.141 0.868,0.339 1.484,0.734 1.847,1.183 0.366,0.447 0.547,1.028 0.547,1.742 0,0.93 -0.268,1.661 -0.805,2.196 -0.538,0.533 -1.271,0.801 -2.206,0.801 -0.935,0 -1.656,-0.282 -2.17,-0.846 -0.513,-0.565 -0.783,-1.373 -0.811,-2.422 z M 179.37,220.42 c 0,-1.91 0.253,-3.312 0.762,-4.206 0.509,-0.894 1.305,-1.341 2.39,-1.341 1.087,0 1.886,0.447 2.395,1.338 0.509,0.891 0.762,2.294 0.762,4.209 0,1.912 -0.256,3.319 -0.767,4.218 -0.511,0.899 -1.307,1.348 -2.39,1.348 -1.08,0 -1.874,-0.449 -2.385,-1.348 -0.511,-0.899 -0.767,-2.307 -0.767,-4.218 z m 0.918,0.002 c 0,1.611 0.182,2.801 0.545,3.573 0.366,0.772 0.927,1.159 1.69,1.159 0.76,0 1.322,-0.385 1.682,-1.152 0.361,-0.767 0.543,-1.96 0.543,-3.58 0,-1.62 -0.182,-2.813 -0.543,-3.58 -0.361,-0.767 -0.923,-1.152 -1.682,-1.152 -0.762,0 -1.324,0.387 -1.69,1.159 -0.364,0.772 -0.545,1.962 -0.545,3.573 z m -7.683,5.348 v -10.683 h 0.903 v 10.683 z m -12.002,0 v -10.683 h 2.225 c 1.439,0 2.45,0.397 3.035,1.19 0.585,0.793 0.877,2.175 0.877,4.144 0,1.964 -0.294,3.348 -0.882,4.149 -0.588,0.801 -1.596,1.2 -3.03,1.2 z m 0.932,-0.802 h 1.238 c 1.152,0 1.941,-0.311 2.366,-0.935 0.428,-0.624 0.64,-1.823 0.64,-3.597 0,-1.788 -0.213,-2.995 -0.64,-3.621 -0.425,-0.626 -1.214,-0.939 -2.366,-0.939 h -1.238 z m -11.47,0.802 v -10.683 h 4.904 v 0.832 h -3.943 v 3.857 h 3.542 v 0.817 h -3.542 v 4.345 h 3.943 v 0.832 z m -14.277,0 v -10.683 h 1.491 l 2.624,9.438 2.639,-9.438 h 1.477 v 10.683 h -0.86 v -9.921 l -2.765,9.921 h -0.958 l -2.787,-9.921 v 9.921 z m -15.34,0 v -10.683 h 1.02 l 4.07,9.318 v -9.318 h 0.846 v 10.683 h -1.042 l -4.049,-9.137 v 9.137 z m -10.539,0 v -10.683 h 4.904 v 0.832 h -3.943 v 3.857 h 3.542 v 0.817 h -3.542 v 4.345 h 3.943 v 0.832 z m 252.486,-21.36 h 2.887 l -1.436,-5.334 z m -1.904,4.172 2.88,-10.683 h 1.052 l 2.851,10.683 h -0.903 l -0.903,-3.355 h -3.224 l -0.918,3.355 z m -11.199,0 V 197.9 h 2.225 c 1.439,0 2.45,0.397 3.035,1.19 0.585,0.793 0.877,2.175 0.877,4.144 0,1.964 -0.294,3.348 -0.882,4.149 -0.588,0.801 -1.597,1.2 -3.03,1.2 h -2.225 z m 0.932,-0.803 h 1.238 c 1.152,0 1.941,-0.311 2.366,-0.935 0.428,-0.624 0.64,-1.823 0.64,-3.597 0,-1.788 -0.213,-2.995 -0.64,-3.621 -0.425,-0.626 -1.214,-0.939 -2.366,-0.939 h -1.238 z m -11.081,-3.369 h 2.887 l -1.436,-5.334 z m -1.905,4.172 2.88,-10.683 h 1.052 l 2.851,10.683 h -0.903 l -0.903,-3.355 h -3.224 l -0.918,3.355 z m -10.018,0 v -0.918 l 4.431,-8.948 h -4.187 V 197.9 h 5.134 v 0.918 l -4.433,8.919 h 4.433 v 0.846 h -5.378 z m -6.335,0 V 197.9 h 0.903 v 10.683 h -0.903 z m -10.209,0 V 197.9 h 0.86 v 9.88 h 3.958 v 0.803 h -4.818 z m -10.149,-4.172 h 2.887 l -1.436,-5.334 z m -1.905,4.172 2.88,-10.683 h 1.052 l 2.851,10.683 h -0.903 l -0.903,-3.355 h -3.224 l -0.918,3.355 z m -6.206,0 V 197.9 h 0.903 v 10.683 h -0.903 z m -5.878,-3.584 c -0.084,1.25 -0.38,2.196 -0.891,2.837 -0.511,0.643 -1.224,0.963 -2.134,0.963 -1.083,0 -1.878,-0.449 -2.388,-1.348 -0.509,-0.899 -0.765,-2.306 -0.765,-4.218 0,-1.91 0.256,-3.312 0.765,-4.206 0.509,-0.894 1.305,-1.341 2.388,-1.341 0.901,0 1.613,0.292 2.137,0.872 0.523,0.583 0.796,1.391 0.82,2.426 l -0.918,0.007 c -0.038,-0.791 -0.234,-1.403 -0.588,-1.835 -0.356,-0.435 -0.839,-0.652 -1.451,-0.652 -0.755,0 -1.314,0.385 -1.678,1.152 -0.361,0.767 -0.543,1.96 -0.543,3.58 0,1.62 0.182,2.813 0.543,3.58 0.363,0.767 0.922,1.152 1.678,1.152 0.617,0 1.109,-0.258 1.479,-0.774 0.368,-0.514 0.583,-1.248 0.643,-2.194 h 0.903 z m -16.502,3.584 V 197.9 h 4.904 v 0.832 h -3.943 v 3.857 h 3.542 v 0.817 h -3.542 v 4.345 h 3.943 v 0.832 h -4.904 z m -10.252,-5.692 h 1.307 c 0.44,0 0.779,-0.029 1.023,-0.084 0.241,-0.057 0.459,-0.148 0.65,-0.272 0.26,-0.17 0.456,-0.397 0.586,-0.684 0.127,-0.287 0.191,-0.638 0.191,-1.054 0,-0.798 -0.182,-1.35 -0.545,-1.654 -0.366,-0.304 -1.09,-0.454 -2.177,-0.454 h -1.035 z m -0.861,5.692 V 197.9 h 2.036 c 0.784,0 1.353,0.045 1.706,0.134 0.356,0.088 0.655,0.239 0.903,0.454 0.28,0.237 0.492,0.545 0.641,0.923 0.146,0.378 0.22,0.813 0.22,1.302 0,1.087 -0.289,1.857 -0.865,2.314 -0.576,0.454 -1.587,0.681 -3.033,0.681 h -0.748 v 4.875 h -0.86 z m -11.709,-3.04 h 0.903 c 0.029,0.765 0.217,1.362 0.571,1.785 0.351,0.426 0.832,0.638 1.439,0.638 0.676,0 1.209,-0.191 1.596,-0.574 0.387,-0.382 0.581,-0.908 0.581,-1.577 0,-0.325 -0.055,-0.607 -0.162,-0.843 -0.108,-0.234 -0.285,-0.452 -0.528,-0.648 -0.22,-0.186 -0.64,-0.397 -1.267,-0.631 -0.275,-0.103 -0.483,-0.184 -0.624,-0.244 -0.829,-0.346 -1.42,-0.75 -1.768,-1.212 -0.351,-0.464 -0.526,-1.059 -0.526,-1.785 0,-0.803 0.265,-1.465 0.796,-1.986 0.53,-0.521 1.204,-0.781 2.027,-0.781 0.841,0 1.503,0.239 1.988,0.719 0.483,0.478 0.724,1.138 0.724,1.979 v 0.069 h -0.86 c -0.038,-0.619 -0.21,-1.097 -0.521,-1.432 -0.311,-0.337 -0.734,-0.504 -1.269,-0.504 -0.569,0 -1.039,0.186 -1.41,0.559 -0.371,0.373 -0.557,0.846 -0.557,1.42 0,0.261 0.038,0.502 0.115,0.724 0.079,0.222 0.191,0.423 0.339,0.605 0.249,0.289 0.801,0.598 1.661,0.925 0.155,0.06 0.27,0.108 0.351,0.141 0.868,0.339 1.484,0.734 1.847,1.183 0.366,0.447 0.547,1.028 0.547,1.742 0,0.93 -0.268,1.661 -0.805,2.196 -0.538,0.533 -1.271,0.801 -2.206,0.801 -0.935,0 -1.656,-0.282 -2.17,-0.846 -0.514,-0.566 -0.784,-1.373 -0.812,-2.423 z m -10.181,3.04 V 197.9 h 4.904 v 0.832 h -3.943 v 3.857 h 3.542 v 0.817 h -3.542 v 4.345 h 3.943 v 0.832 h -4.904 z m -12.539,-5.291 h 3.198 v 5.291 h -0.705 l -0.098,-1.092 c -0.279,0.423 -0.612,0.748 -0.994,0.973 -0.382,0.222 -0.803,0.335 -1.259,0.335 -1.061,0 -1.843,-0.454 -2.349,-1.362 -0.507,-0.906 -0.76,-2.306 -0.76,-4.201 0,-1.926 0.258,-3.336 0.774,-4.228 0.516,-0.891 1.326,-1.336 2.433,-1.336 0.851,0 1.525,0.268 2.022,0.803 0.497,0.538 0.786,1.307 0.865,2.309 h -0.903 c -0.079,-0.726 -0.294,-1.288 -0.641,-1.685 -0.349,-0.397 -0.801,-0.595 -1.355,-0.595 -0.777,0 -1.348,0.382 -1.714,1.145 -0.366,0.762 -0.55,1.957 -0.55,3.587 0,1.62 0.182,2.813 0.543,3.58 0.361,0.767 0.92,1.152 1.675,1.152 0.729,0 1.276,-0.33 1.647,-0.992 0.368,-0.66 0.552,-1.64 0.552,-2.937 h -2.38 v -0.747 z m -14.74,5.291 V 197.9 h 1.02 l 4.07,9.318 V 197.9 h 0.846 v 10.683 h -1.042 l -4.048,-9.137 v 9.137 h -0.846 z m -6.981,0 V 197.9 h 0.903 v 10.683 h -0.903 z m -8.603,0 v -9.822 h -2.438 v -0.86 h 5.793 v 0.86 h -2.423 v 9.822 z m -12.145,0 V 197.9 h 4.904 v 0.832 h -3.943 v 3.857 h 3.542 v 0.817 h -3.542 v 4.345 h 3.943 v 0.832 h -4.904 z m -11.083,0 V 197.9 h 0.889 v 5.482 l 4.003,-5.482 h 1.016 l -3.186,4.347 3.315,6.336 h -0.949 l -2.918,-5.592 -1.281,1.735 v 3.857 h -0.889 z m -10.463,-5.764 h 0.918 c 0.992,0 1.697,-0.167 2.113,-0.499 0.418,-0.335 0.626,-0.884 0.626,-1.649 0,-0.691 -0.198,-1.195 -0.595,-1.508 -0.394,-0.315 -1.028,-0.473 -1.9,-0.473 h -1.161 v 4.129 z m -0.903,5.764 V 197.9 h 2.093 c 1.157,0 2.003,0.215 2.545,0.648 0.54,0.43 0.81,1.104 0.81,2.019 0,0.681 -0.131,1.236 -0.392,1.661 -0.261,0.428 -0.66,0.743 -1.2,0.949 0.476,0.141 0.82,0.378 1.033,0.715 0.21,0.337 0.342,0.882 0.387,1.639 0.014,0.222 0.029,0.535 0.043,0.937 0.041,1.121 0.208,1.826 0.502,2.115 h -1.037 c -0.17,-0.205 -0.277,-0.858 -0.318,-1.96 -0.014,-0.304 -0.026,-0.538 -0.036,-0.707 -0.045,-0.956 -0.198,-1.58 -0.454,-1.871 -0.258,-0.292 -0.722,-0.437 -1.393,-0.437 h -1.68 v 4.976 h -0.903 z m -10.121,-4.172 h 2.887 l -1.436,-5.334 z m -1.904,4.172 2.88,-10.683 h 1.052 l 2.851,10.683 h -0.903 l -0.903,-3.355 h -3.224 l -0.918,3.355 z m -13.503,0 V 197.9 h 1.491 l 2.624,9.438 2.639,-9.438 h 1.477 v 10.683 h -0.86 v -9.92 l -2.765,9.92 h -0.958 l -2.787,-9.92 v 9.92 h -0.861 z m -13.892,0 V 197.9 h 4.904 v 0.832 h -3.943 v 3.857 h 3.542 v 0.817 h -3.542 v 4.345 h 3.943 v 0.832 h -4.904 z m -11.972,0 V 197.9 h 2.225 c 1.439,0 2.45,0.397 3.035,1.19 0.586,0.793 0.877,2.175 0.877,4.144 0,1.964 -0.294,3.348 -0.882,4.149 -0.588,0.801 -1.596,1.2 -3.03,1.2 h -2.225 z m 0.932,-0.803 h 1.238 c 1.152,0 1.941,-0.311 2.366,-0.935 0.428,-0.624 0.64,-1.823 0.64,-3.597 0,-1.788 -0.213,-2.995 -0.64,-3.621 -0.425,-0.626 -1.214,-0.939 -2.366,-0.939 h -1.238 z M 94.681,204.41 h 2.887 l -1.436,-5.334 z m -1.904,4.172 2.88,-10.683 h 1.052 l 2.851,10.683 h -0.903 l -0.903,-3.355 H 94.53 l -0.918,3.355 z m -6.206,0 V 197.9 h 0.903 v 10.683 h -0.903 z m -5.879,-3.584 c -0.084,1.25 -0.38,2.196 -0.891,2.837 -0.511,0.643 -1.224,0.963 -2.134,0.963 -1.083,0 -1.878,-0.449 -2.388,-1.348 -0.509,-0.899 -0.765,-2.306 -0.765,-4.218 0,-1.91 0.256,-3.312 0.765,-4.206 0.509,-0.894 1.305,-1.341 2.388,-1.341 0.901,0 1.613,0.292 2.137,0.872 0.524,0.583 0.796,1.391 0.82,2.426 l -0.918,0.007 c -0.038,-0.791 -0.234,-1.403 -0.588,-1.835 -0.356,-0.435 -0.839,-0.652 -1.451,-0.652 -0.755,0 -1.314,0.385 -1.678,1.152 -0.361,0.767 -0.543,1.96 -0.543,3.58 0,1.62 0.182,2.813 0.543,3.58 0.363,0.767 0.923,1.152 1.678,1.152 0.617,0 1.109,-0.258 1.479,-0.774 0.368,-0.514 0.583,-1.248 0.643,-2.194 h 0.903 z m -17.95,3.584 V 197.9 h 1.02 l 4.07,9.318 V 197.9 h 0.846 v 10.683 h -1.042 l -4.048,-9.137 v 9.137 h -0.846 z m -10.539,0 V 197.9 h 4.904 v 0.832 h -3.943 v 3.857 h 3.542 v 0.817 h -3.542 v 4.345 h 3.943 v 0.832 h -4.904 z m -9.186,-5.291 h 3.198 v 5.291 H 45.51 l -0.098,-1.092 c -0.28,0.423 -0.612,0.748 -0.994,0.973 -0.382,0.222 -0.803,0.335 -1.259,0.335 -1.061,0 -1.843,-0.454 -2.349,-1.362 -0.507,-0.906 -0.76,-2.306 -0.76,-4.201 0,-1.926 0.258,-3.336 0.774,-4.228 0.516,-0.891 1.326,-1.336 2.433,-1.336 0.851,0 1.525,0.268 2.022,0.803 0.497,0.538 0.786,1.307 0.865,2.309 H 45.24 c -0.079,-0.726 -0.294,-1.288 -0.641,-1.685 -0.349,-0.397 -0.801,-0.595 -1.355,-0.595 -0.777,0 -1.348,0.382 -1.713,1.145 -0.366,0.762 -0.55,1.957 -0.55,3.587 0,1.62 0.182,2.813 0.542,3.58 0.361,0.767 0.92,1.152 1.675,1.152 0.729,0 1.276,-0.33 1.647,-0.992 0.368,-0.66 0.552,-1.64 0.552,-2.937 h -2.38 z m -12.902,1.119 h 2.887 l -1.436,-5.334 z m -1.905,4.172 2.88,-10.683 h 1.052 l 2.851,10.683 H 34.09 l -0.903,-3.355 h -3.224 l -0.918,3.355 z"
       id="path10"
       inkscape:connector-curvature="0"
       style="fill:#ffffff" /><g
       id="g24"><path
         d="m 174.259,0 c 9.252,0 18.007,2.146 25.805,5.971 L 200,5.938 c -19.781,9.669 -33.423,30.135 -33.423,53.82 0,23.684 13.643,44.147 33.423,53.815 -7.674,3.753 -16.271,5.88 -25.357,5.938 l 0.004,0.004 L 100,120 124.106,91.468 c -5.708,-9.191 -9.012,-20.06 -9.012,-31.71 C 115.093,26.754 141.582,0 174.259,0 Z"
         id="path12"
         inkscape:connector-curvature="0"
         style="fill:#f48ec8" /><path
         d="M 225.742,0 C 216.49,0 207.735,2.146 199.937,5.971 L 200,5.938 c 19.781,9.669 33.423,30.135 33.423,53.82 0,23.684 -13.643,44.147 -33.423,53.815 7.675,3.751 16.273,5.879 25.357,5.938 l -0.004,0.004 L 300,120 275.894,91.468 c 5.708,-9.191 9.012,-20.06 9.012,-31.71 C 284.907,26.754 258.418,0 225.742,0 Z"
         id="path14"
         inkscape:connector-curvature="0"
         style="fill:#b9d409" /><path
         d="m 200,5.938 c 19.781,9.669 33.423,30.135 33.423,53.82 0,23.684 -13.643,44.147 -33.423,53.816 -19.78,-9.669 -33.423,-30.131 -33.423,-53.816 0,-23.685 13.643,-44.151 33.423,-53.82"
         id="path16"
         inkscape:connector-curvature="0"
         style="fill:#ffffff" /><path
         d="m 182.392,55.617 c 2.263,0 4.098,1.853 4.098,4.139 0,2.286 -1.835,4.139 -4.098,4.139 -2.263,0 -4.098,-1.853 -4.098,-4.139 0,-2.286 1.835,-4.139 4.098,-4.139"
         id="path18"
         inkscape:connector-curvature="0"
         style="fill:#49ccd5" /><path
         d="m 200,55.617 c 2.263,0 4.098,1.853 4.098,4.139 0,2.286 -1.835,4.139 -4.098,4.139 -2.263,0 -4.098,-1.853 -4.098,-4.139 0,-2.286 1.835,-4.139 4.098,-4.139"
         id="path20"
         inkscape:connector-curvature="0"
         style="fill:#49ccd5" /><path
         d="m 217.608,55.617 c 2.263,0 4.098,1.853 4.098,4.139 0,2.286 -1.835,4.139 -4.098,4.139 -2.263,0 -4.098,-1.853 -4.098,-4.139 0,-2.286 1.835,-4.139 4.098,-4.139"
         id="path22"
         inkscape:connector-curvature="0"
         style="fill:#49ccd5" /></g></g></svg>