<?xml version="1.0" encoding="UTF-8" standalone="no"?>
<svg
   xmlns:dc="http://purl.org/dc/elements/1.1/"
   xmlns:cc="http://creativecommons.org/ns#"
   xmlns:rdf="http://www.w3.org/1999/02/22-rdf-syntax-ns#"
   xmlns:svg="http://www.w3.org/2000/svg"
   xmlns="http://www.w3.org/2000/svg"
   xmlns:sodipodi="http://sodipodi.sourceforge.net/DTD/sodipodi-0.dtd"
   xmlns:inkscape="http://www.inkscape.org/namespaces/inkscape"
   id="Layer_4"
   viewBox="0 0 839 200"
   version="1.1"
   sodipodi:docname="logo-light.svg"
   inkscape:version="0.92.2 (unknown)">
  <metadata
     id="metadata76">
    <rdf:RDF>
      <cc:Work
         rdf:about="">
        <dc:format>image/svg+xml</dc:format>
        <dc:type
           rdf:resource="http://purl.org/dc/dcmitype/StillImage" />
        <dc:title />
      </cc:Work>
    </rdf:RDF>
  </metadata>
  <defs
     id="defs74" />
  <sodipodi:namedview
     pagecolor="#ffffff"
     bordercolor="#666666"
     borderopacity="1"
     objecttolerance="10"
     gridtolerance="10"
     guidetolerance="10"
     inkscape:pageopacity="0"
     inkscape:pageshadow="2"
     inkscape:window-width="1855"
     inkscape:window-height="1056"
     id="namedview72"
     showgrid="false"
     inkscape:zoom="0.9877582"
     inkscape:cx="561.90284"
     inkscape:cy="76.135878"
     inkscape:window-x="65"
     inkscape:window-y="24"
     inkscape:window-maximized="1"
     inkscape:current-layer="XMLID_7_" />
  <style
     id="style2">.st0{fill:none;} .st1{fill:#FFC107;} .st2{fill:#0F9D58;} .st3{opacity:0.2;fill:#BF360C;enable-background:new ;} .st4{opacity:0.2;fill:#263238;enable-background:new ;} .st5{opacity:0.2;fill:#FFFFFF;enable-background:new ;} .st6{fill:url(#XMLID_126_);} .st7{fill:url(#XMLID_127_);} .st8{fill:#4285F4;} .st9{fill:#DB4437;} .st10{opacity:0.2;fill:#1A237E;enable-background:new ;} .st11{opacity:0.2;fill:#3E2723;enable-background:new ;} .st12{fill:url(#XMLID_128_);} .st13{fill:#FAFAFA;}</style>
  <g
     id="XMLID_60_">
    <g
       id="XMLID_61_">
      <g
         id="XMLID_62_">
        <path
           id="XMLID_106_"
           class="st0"
           d="M122.5 90.6L70.1 0H0l57.8 100L0 200h70.1l52.4-90.6c3.3-5.8 3.3-13 0-18.8z" />
        <path
           id="XMLID_105_"
           class="st1"
           d="M92.4 159.8l-16.6-28.7L35.9 200h34.2l22.8-39.4z" />
        <path
           id="XMLID_104_"
           class="st0"
           d="M122.5 90.6L70.1 0H0l57.8 100L0 200h70.1l52.4-90.6c3.3-5.8 3.3-13 0-18.8z" />
        <path
           id="XMLID_103_"
           class="st2"
           d="M57.8 100l18 31.1L35.9 200H0z" />
        <path
           id="XMLID_102_"
           class="st0"
           d="M122.5 90.6L70.1 0H0l57.8 100L0 200h70.1l52.4-90.6c3.3-5.8 3.3-13 0-18.8z" />
        <path
           id="XMLID_101_"
           class="st3"
           d="M70.1 198.4H36.8l-.9 1.6h34.2l22.8-39.4-.5-.8z" />
        <path
           id="XMLID_100_"
           class="st0"
           d="M122.5 90.6L70.1 0H0l57.8 100L0 200h70.1l52.4-90.6c3.3-5.8 3.3-13 0-18.8z" />
        <path
           id="XMLID_99_"
           class="st4"
           d="M.9 198.4L0 200h35.9l.9-1.6z" />
        <path
           id="XMLID_98_"
           class="st0"
           d="M122.5 90.6L70.1 0H0l57.8 100L0 200h70.1l52.4-90.6c3.3-5.8 3.3-13 0-18.8z" />
        <path
           id="XMLID_96_"
           class="st5"
           d="M0 200h.9l57.4-99.2-.5-.8z" />
        <path
           id="XMLID_94_"
           class="st0"
           d="M122.5 90.6L70.1 0H0l57.8 100L0 200h70.1l52.4-90.6c3.3-5.8 3.3-13 0-18.8z" />
        <radialGradient
           id="XMLID_126_"
           cx="92.62"
           cy="2707.501"
           r="69.162"
           gradientTransform="matrix(1 0 0 -1 0 2867.46)"
           gradientUnits="userSpaceOnUse">
          <stop
             offset="0"
             stop-color="#BF360C"
             stop-opacity=".2"
             id="stop15" />
          <stop
             offset="1"
             stop-color="#BF360C"
             stop-opacity=".02"
             id="stop17" />
        </radialGradient>
        <path
           id="XMLID_92_"
           class="st6"
           d="M92.9 160.6l-17.1-29.5-4.2 7.2z" />
        <path
           id="XMLID_90_"
           class="st0"
           d="M122.5 90.6L70.1 0H0l57.8 100L0 200h70.1l52.4-90.6c3.3-5.8 3.3-13 0-18.8z" />
        <radialGradient
           id="XMLID_127_"
           cx="92.423"
           cy="2707.063"
           r="69.723"
           gradientTransform="matrix(1 0 0 -1 0 2867.46)"
           gradientUnits="userSpaceOnUse">
          <stop
             offset="0"
             stop-color="#263238"
             stop-opacity=".2"
             id="stop22" />
          <stop
             offset="1"
             stop-color="#263238"
             stop-opacity=".02"
             id="stop24" />
        </radialGradient>
        <path
           id="XMLID_89_"
           class="st7"
           d="M71.6 138.3l4.2-7.2-18-31.1-8.5 14.8z" />
        <path
           id="XMLID_88_"
           class="st0"
           d="M122.5 90.6L70.1 0H0l57.8 100L0 200h70.1l52.4-90.6c3.3-5.8 3.3-13 0-18.8z" />
        <g
           id="XMLID_85_">
          <g
             id="XMLID_86_">
            <path
               id="XMLID_87_"
               class="st8"
               d="M35.9 0H0l92.9 160.6 17.9-31.1z" />
          </g>
        </g>
        <path
           id="XMLID_84_"
           class="st0"
           d="M122.5 90.6L70.1 0H0l57.8 100L0 200h70.1l52.4-90.6c3.3-5.8 3.3-13 0-18.8z" />
        <path
           id="XMLID_83_"
           class="st9"
           d="M122.5 109.4c3.4-5.8 3.4-13 0-18.8L70.1 0H35.9l74.9 129.5 11.7-20.1z" />
        <path
           id="XMLID_82_"
           class="st0"
           d="M122.5 90.6L70.1 0H0l57.8 100L0 200h70.1l52.4-90.6c3.3-5.8 3.3-13 0-18.8z" />
        <path
           id="XMLID_71_"
           class="st10"
           d="M110.8 129.5l-.4-.8L92.9 159 .9 0H0l92.9 160.6 17.9-31.1z" />
        <path
           id="XMLID_69_"
           class="st0"
           d="M122.5 90.6L70.1 0H0l57.8 100L0 200h70.1l52.4-90.6c3.3-5.8 3.3-13 0-18.8z" />
        <path
           id="XMLID_67_"
           class="st5"
           d="M70.1 1.6l52.4 90.6c1.5 2.7 2.3 5.6 2.5 8.6.1-3.5-.7-7-2.5-10.2L70.1 0H0l.9 1.6h69.2z" />
        <path
           id="XMLID_66_"
           class="st0"
           d="M122.5 90.6L70.1 0H0l57.8 100L0 200h70.1l52.4-90.6c3.3-5.8 3.3-13 0-18.8z" />
        <path
           id="XMLID_65_"
           class="st11"
           d="M110.8 129.5l11.6-20.1c1.8-3.1 2.6-6.7 2.5-10.2-.1 3-.9 5.9-2.5 8.6l-12.1 20.9.5.8z" />
        <path
           id="XMLID_64_"
           class="st0"
           d="M122.5 90.6L70.1 0H0l57.8 100L0 200h70.1l52.4-90.6c3.3-5.8 3.3-13 0-18.8z" />
        <radialGradient
           id="XMLID_128_"
           cx="-1.563"
           cy="2865.898"
           r="209.922"
           gradientTransform="matrix(1 0 0 -1 0 2867.46)"
           gradientUnits="userSpaceOnUse">
          <stop
             offset="0"
             stop-color="#FFF"
             stop-opacity=".1"
             id="stop41" />
          <stop
             offset="1"
             stop-color="#FFF"
             stop-opacity="0"
             id="stop43" />
        </radialGradient>
        <path
           id="XMLID_63_"
           class="st12"
           d="M122.5 90.6L70.1 0H0l57.8 100L0 200h70.1l52.4-90.6c3.3-5.8 3.3-13 0-18.8z" />
      </g>
    </g>
  </g>
  <g
     id="XMLID_7_">
    <path
       id="XMLID_2_"
       class="st13"
       d="m 275.5,51.8 c 0,10.9 -3.2,19.7 -9.7,26.1 -7.4,7.7 -17,11.6 -28.8,11.6 -11.3,0 -20.9,-3.9 -28.8,-11.8 -7.9,-7.8 -11.9,-17.6 -11.9,-29.1 0,-11.5 4,-21.3 11.9,-29.1 7.9,-7.8 17.5,-11.8 28.8,-11.8 5.6,0 11,1.1 16.1,3.3 5.1,2.2 9.2,5.1 12.2,8.8 l -6.9,6.9 c -5.2,-6.2 -12.3,-9.3 -21.4,-9.3 -8.2,0 -15.4,2.9 -21.4,8.7 -6,5.8 -9,13.3 -9,22.6 0,9.3 3,16.8 9,22.6 6,5.8 13.1,8.7 21.4,8.7 8.8,0 16,-2.9 21.9,-8.8 3.8,-3.8 6,-9.1 6.6,-15.9 H 237 v -9.4 h 38 c 0.3,2.1 0.5,4 0.5,5.9 z"
       inkscape:connector-curvature="0"
       style="fill:#fafafa" />
    <path
       id="XMLID_4_"
       class="st13"
       d="M 285.4,87.8 V 9.5 h 24 c 12,0 21.7,3.6 28.9,10.9 7.2,7.3 10.8,16.7 10.8,28.3 0,11.6 -3.6,21 -10.8,28.3 -7.2,7.3 -16.8,10.9 -28.9,10.9 h -24 z m 10.1,-9.6 h 13.9 c 9,0 16.2,-2.6 21.5,-7.8 5.3,-5.2 7.9,-12.4 7.9,-21.8 0,-9.3 -2.6,-16.5 -7.9,-21.7 -5.3,-5.2 -12.5,-7.8 -21.5,-7.8 h -13.9 z"
       inkscape:connector-curvature="0"
       style="fill:#fafafa" />
    <path
       id="XMLID_8_"
       class="st13"
       d="m 434.5,51.8 c 0,10.9 -3.2,19.7 -9.7,26.1 -7.4,7.7 -17,11.6 -28.8,11.6 -11.3,0 -20.9,-3.9 -28.8,-11.8 -7.9,-7.8 -11.9,-17.6 -11.9,-29.1 0,-11.5 4,-21.3 11.9,-29.1 7.9,-7.8 17.5,-11.8 28.8,-11.8 5.6,0 11,1.1 16.1,3.3 5.1,2.2 9.2,5.1 12.2,8.8 l -6.9,6.9 c -5.2,-6.2 -12.3,-9.3 -21.4,-9.3 -8.2,0 -15.4,2.9 -21.4,8.7 -6,5.8 -9,13.3 -9,22.6 0,9.3 3,16.8 9,22.6 6,5.8 13.1,8.7 21.4,8.7 8.8,0 16,-2.9 21.9,-8.8 3.8,-3.8 6,-9.1 6.6,-15.9 H 396 v -9.4 h 38 c 0.3,2.1 0.5,4 0.5,5.9 z"
       inkscape:connector-curvature="0"
       style="fill:#fafafa" />
    <path
       id="XMLID_10_"
       class="st13"
       d="M 470.8,87.8 V 9.5 h 24 c 12,0 21.7,3.6 28.9,10.9 7.2,7.3 10.8,16.7 10.8,28.3 0,11.6 -3.6,21 -10.8,28.3 -7.2,7.3 -16.8,10.9 -28.9,10.9 h -24 z m 10.1,-9.6 h 13.9 c 9,0 16.2,-2.6 21.5,-7.8 5.3,-5.2 7.9,-12.4 7.9,-21.8 0,-9.3 -2.6,-16.5 -7.9,-21.7 -5.3,-5.2 -12.5,-7.8 -21.5,-7.8 h -13.9 z"
       inkscape:connector-curvature="0"
       style="fill:#fafafa" />
    <path
       id="XMLID_13_"
       class="st13"
       d="m 567.4,89.6 c -8.1,0 -14.7,-2.7 -19.7,-8.1 -5.1,-5.4 -7.6,-12.2 -7.6,-20.5 0,-7.8 2.5,-14.5 7.4,-20.1 4.9,-5.6 11.2,-8.4 18.9,-8.4 7.9,0 14.3,2.6 19.1,7.8 4.8,5.2 7.2,12.1 7.2,20.8 l -0.1,1.9 h -42.3 c 0.3,5.4 2.1,9.7 5.4,12.8 3.3,3.1 7.2,4.7 11.6,4.7 7.2,0 12.1,-3.1 14.7,-9.2 l 9,3.7 c -1.8,4.2 -4.6,7.6 -8.6,10.4 -4.2,2.8 -9.1,4.2 -15,4.2 z m 14.5,-35 c -0.2,-3.1 -1.6,-6 -4.2,-8.8 -2.6,-2.8 -6.4,-4.2 -11.5,-4.2 -3.7,0 -6.9,1.2 -9.7,3.5 -2.7,2.3 -4.6,5.5 -5.6,9.4 h 31 z"
       inkscape:connector-curvature="0"
       style="fill:#fafafa" />
    <path
       id="XMLID_16_"
       class="st13"
       d="M 613.7,87.8 592,34.2 h 11 l 15.8,41.6 h 0.2 l 16,-41.6 h 10.7 l -21.9,53.6 z"
       inkscape:connector-curvature="0"
       style="fill:#fafafa" />
    <path
       id="XMLID_18_"
       class="st13"
       d="M 661.6,87.8 H 651.5 V 9.5 h 45.7 v 9.6 h -35.7 v 25.7 h 32.2 v 9.4 h -32.2 v 33.6 z"
       inkscape:connector-curvature="0"
       style="fill:#fafafa" />
    <path
       id="XMLID_20_"
       class="st13"
       d="m 727.7,89.6 c -8.1,0 -14.7,-2.7 -19.7,-8.1 -5.1,-5.4 -7.6,-12.2 -7.6,-20.5 0,-7.8 2.5,-14.5 7.4,-20.1 4.9,-5.6 11.2,-8.4 18.9,-8.4 7.9,0 14.3,2.6 19.1,7.8 4.8,5.2 7.2,12.1 7.2,20.8 l -0.1,1.9 h -42.3 c 0.3,5.4 2.1,9.7 5.4,12.8 3.3,3.1 7.2,4.7 11.6,4.7 7.2,0 12.1,-3.1 14.7,-9.2 l 9,3.7 c -1.8,4.2 -4.6,7.6 -8.6,10.4 -4.3,2.8 -9.2,4.2 -15,4.2 z m 14.4,-35 c -0.2,-3.1 -1.6,-6 -4.2,-8.8 -2.6,-2.8 -6.4,-4.2 -11.5,-4.2 -3.7,0 -6.9,1.2 -9.7,3.5 -2.7,2.3 -4.6,5.5 -5.6,9.4 h 31 z"
       inkscape:connector-curvature="0"
       style="fill:#fafafa" />
    <path
       id="XMLID_27_"
       class="st13"
       d="m 779.5,89.6 c -6,0 -10.9,-1.5 -14.8,-4.4 -3.9,-2.9 -6.8,-6.6 -8.6,-10.9 l 9,-3.7 c 2.8,6.7 7.7,10.1 14.5,10.1 3.1,0 5.7,-0.7 7.7,-2.1 2,-1.4 3,-3.2 3,-5.5 0,-3.5 -2.4,-5.9 -7.3,-7.1 l -10.8,-2.6 c -3.4,-0.9 -6.7,-2.5 -9.7,-5 -3.1,-2.4 -4.6,-5.7 -4.6,-9.9 0,-4.7 2.1,-8.6 6.3,-11.5 4.2,-3 9.2,-4.4 14.9,-4.4 4.7,0 9,1.1 12.7,3.2 3.7,2.2 6.4,5.2 8,9.2 l -8.8,3.6 c -2,-4.7 -6.1,-7.1 -12.2,-7.1 -3,0 -5.5,0.6 -7.5,1.9 -2,1.2 -3.1,2.9 -3.1,5 0,3.1 2.4,5.1 7.1,6.2 l 10.6,2.5 c 5,1.2 8.8,3.2 11.2,6 2.4,2.8 3.6,6.1 3.6,9.6 0,4.8 -2,8.8 -5.9,12 -4,3.3 -9.1,4.9 -15.3,4.9 z"
       inkscape:connector-curvature="0"
       style="fill:#fafafa" />
    <path
       id="XMLID_29_"
       class="st13"
       d="m 830.9,88.7 c -5.6,0 -9.9,-1.5 -12.9,-4.5 -3,-3 -4.4,-7.2 -4.4,-12.7 V 43.4 h -9.4 v -9.2 h 9.4 V 17.8 h 10.1 v 16.4 h 13.1 v 9.2 h -13.1 v 27.3 c 0,5.8 2.4,8.8 7.2,8.8 1.8,0 3.4,-0.3 4.6,-0.9 l 3.5,8.6 c -2.2,1 -4.9,1.5 -8.1,1.5 z"
       inkscape:connector-curvature="0"
       style="fill:#fafafa" />
    <path
       id="XMLID_31_"
       class="st13"
       d="m 222.2,192.7 c -5.7,0 -11.2,-1.9 -16.7,-5.6 -5.4,-3.7 -9,-8.9 -10.7,-15.6 l 9.2,-3.7 c 1.1,4.3 3.3,7.9 6.7,10.9 3.4,3 7.2,4.4 11.4,4.4 4.4,0 8.1,-1.1 11.2,-3.4 3.1,-2.3 4.6,-5.4 4.6,-9.4 0,-4.4 -1.6,-7.7 -4.6,-10.1 -3.1,-2.4 -8,-4.6 -14.7,-6.6 -6.9,-2.2 -12.2,-5 -15.8,-8.5 -3.6,-3.5 -5.4,-7.9 -5.4,-13.3 0,-5.6 2.2,-10.5 6.7,-14.7 4.4,-4.2 10.2,-6.2 17.4,-6.2 6.6,0 12,1.7 16.2,5 4.2,3.3 6.9,6.9 8.1,10.9 l -9.2,3.8 c -0.7,-2.5 -2.3,-4.8 -4.9,-6.9 -2.6,-2.1 -5.9,-3.2 -10,-3.2 -3.9,0 -7.2,1.1 -9.9,3.2 -2.7,2.2 -4.1,4.8 -4.1,8 0,2.9 1.3,5.4 3.8,7.4 2.5,2 6.2,3.8 11.1,5.4 3.9,1.2 7.1,2.4 9.7,3.6 2.6,1.2 5.2,2.7 7.9,4.6 2.7,1.9 4.7,4.3 6,7.2 1.3,2.9 2,6.2 2,10 0,3.8 -0.8,7.2 -2.4,10.2 -1.6,3 -3.6,5.4 -6.2,7.1 -2.6,1.8 -5.4,3.1 -8.4,4 -2.8,1 -5.9,1.5 -9,1.5 z"
       inkscape:connector-curvature="0"
       style="fill:#fafafa" />
    <path
       id="XMLID_33_"
       class="st13"
       d="m 281.4,192.7 c -8.1,0 -14.7,-2.7 -19.7,-8.1 -5.1,-5.4 -7.6,-12.2 -7.6,-20.5 0,-7.8 2.5,-14.5 7.4,-20.1 4.9,-5.6 11.2,-8.4 18.9,-8.4 7.9,0 14.3,2.6 19.1,7.8 4.8,5.2 7.2,12.1 7.2,20.8 l -0.1,1.9 h -42.3 c 0.3,5.4 2.1,9.7 5.4,12.8 3.3,3.1 7.2,4.7 11.6,4.7 7.2,0 12.1,-3.1 14.7,-9.2 l 9,3.7 c -1.8,4.2 -4.6,7.6 -8.6,10.4 -4.3,2.8 -9.2,4.2 -15,4.2 z m 14.4,-35 c -0.2,-3.1 -1.6,-6 -4.2,-8.8 -2.6,-2.8 -6.4,-4.2 -11.5,-4.2 -3.7,0 -6.9,1.2 -9.7,3.5 -2.7,2.3 -4.6,5.5 -5.6,9.4 h 31 z"
       inkscape:connector-curvature="0"
       style="fill:#fafafa" />
    <path
       id="XMLID_36_"
       class="st13"
       d="m 330.3,192.7 c -5.7,0 -10.4,-1.6 -14.3,-4.9 -3.8,-3.3 -5.7,-7.6 -5.7,-13 0,-5.8 2.3,-10.4 6.8,-13.7 4.5,-3.3 10.1,-5 16.7,-5 5.9,0 10.8,1.1 14.5,3.3 v -1.5 c 0,-3.9 -1.3,-7.1 -4,-9.5 -2.7,-2.4 -6,-3.6 -10,-3.6 -2.9,0 -5.6,0.7 -7.9,2.1 -2.4,1.4 -4,3.3 -4.9,5.7 l -9.2,-3.9 c 1.2,-3.2 3.7,-6.2 7.3,-8.9 3.6,-2.7 8.5,-4.1 14.4,-4.1 6.9,0 12.5,2 17.1,6 4.5,4 6.8,9.7 6.8,17 v 32.4 h -9.6 v -7.4 h -0.4 c -4,5.9 -9.9,9 -17.6,9 z m 1.7,-9.2 c 4.2,0 7.9,-1.5 11.3,-4.6 3.4,-3.1 5.1,-6.8 5.1,-11 -2.8,-2.3 -7.1,-3.5 -12.8,-3.5 -4.9,0 -8.6,1.1 -11,3.2 -2.5,2.1 -3.7,4.6 -3.7,7.4 0,2.6 1.1,4.7 3.4,6.2 2.2,1.5 4.7,2.3 7.7,2.3 z"
       inkscape:connector-curvature="0"
       style="fill:#fafafa" />
    <path
       id="XMLID_39_"
       class="st13"
       d="m 387,192.7 c -6,0 -10.9,-1.5 -14.8,-4.4 -3.9,-2.9 -6.8,-6.6 -8.6,-10.9 l 9,-3.7 c 2.8,6.7 7.7,10.1 14.5,10.1 3.1,0 5.7,-0.7 7.7,-2.1 2,-1.4 3,-3.2 3,-5.5 0,-3.5 -2.4,-5.9 -7.3,-7.1 l -10.8,-2.6 c -3.4,-0.9 -6.7,-2.5 -9.7,-5 -3.1,-2.4 -4.6,-5.7 -4.6,-9.9 0,-4.7 2.1,-8.6 6.3,-11.5 4.2,-3 9.2,-4.4 14.9,-4.4 4.7,0 9,1.1 12.7,3.2 3.7,2.2 6.4,5.2 8,9.2 l -8.8,3.6 c -2,-4.7 -6.1,-7.1 -12.2,-7.1 -3,0 -5.5,0.6 -7.5,1.9 -2,1.2 -3.1,2.9 -3.1,5 0,3.1 2.4,5.1 7.1,6.2 l 10.6,2.5 c 5,1.2 8.7,3.2 11.2,6 2.4,2.8 3.6,6.1 3.6,9.6 0,4.8 -2,8.8 -5.9,12 -4.1,3.3 -9.1,4.9 -15.3,4.9 z"
       inkscape:connector-curvature="0"
       style="fill:#fafafa" />
    <path
       id="XMLID_41_"
       class="st13"
       d="m 419.7,143.7 c 5.2,-5.4 11.8,-8.1 19.8,-8.1 8,0 14.6,2.7 19.8,8.1 5.2,5.4 7.8,12.2 7.8,20.4 0,8.2 -2.6,15 -7.8,20.4 -5.2,5.4 -11.8,8.1 -19.8,8.1 -8,0 -14.6,-2.7 -19.8,-8.1 -5.2,-5.4 -7.8,-12.2 -7.8,-20.4 0,-8.1 2.6,-14.9 7.8,-20.4 z m 7.5,34.5 c 3.5,3.5 7.6,5.3 12.3,5.3 4.7,0 8.8,-1.8 12.3,-5.3 3.5,-3.5 5.2,-8.2 5.2,-14.1 0,-5.8 -1.7,-10.5 -5.2,-14.1 -3.5,-3.5 -7.6,-5.3 -12.3,-5.3 -4.7,0 -8.8,1.8 -12.3,5.3 -3.5,3.5 -5.2,8.2 -5.2,14.1 0,5.9 1.7,10.6 5.2,14.1 z"
       inkscape:connector-curvature="0"
       style="fill:#fafafa" />
    <path
       id="XMLID_44_"
       class="st13"
       d="m 483.8,137.3 v 7.4 h 0.4 c 1.5,-2.6 3.8,-4.7 6.9,-6.5 3.1,-1.8 6.5,-2.7 10.1,-2.7 6.6,0 11.7,2 15.2,6.1 3.5,4.1 5.2,9.6 5.2,16.4 v 32.8 h -10.1 v -31.3 c 0,-9.9 -4.4,-14.9 -13.2,-14.9 -4.2,0 -7.5,1.7 -10.2,5 -2.6,3.3 -3.9,7.2 -3.9,11.5 v 29.6 h -10.1 v -53.6 h 9.7 z"
       inkscape:connector-curvature="0"
       style="fill:#fafafa" />
  </g>
</svg>
